<svg xmlns="http://www.w3.org/2000/svg" viewBox="0 0 160 40" width="160" height="40">
  <rect width="160" height="40" fill="#2b231e" rx="8"/>
  <!-- Icon background -->
  <rect x="4" y="4" width="32" height="32" rx="8" fill="#b89c86"/>
  <!-- Brain icon -->
  <g transform="translate(8, 8)" color="#ffffff">
    
  <path d="M12 5a3 3 0 1 0-5.997.125 4 4 0 0 0-2.526 5.77 4 4 0 0 0 .556 6.588A4 4 0 1 0 12 18Z" stroke="currentColor" stroke-width="2" stroke-linecap="round" stroke-linejoin="round" fill="none"/>
  <path d="M12 5a3 3 0 1 1 5.997.125 4 4 0 0 1 2.526 5.77 4 4 0 0 1-.556 6.588A4 4 0 1 1 12 18Z" stroke="currentColor" stroke-width="2" stroke-linecap="round" stroke-linejoin="round" fill="none"/>
  <path d="M12 5.5v8" stroke="currentColor" stroke-width="2" stroke-linecap="round" stroke-linejoin="round" fill="none"/>

  </g>
  <!-- Wordmark -->
  <text x="44" y="26" font-family="Montserrat, system-ui, sans-serif" font-size="18" font-weight="700" fill="#f5efe7">
    Dopadaily
  </text>
</svg>